<?xml version="1.0" encoding="UTF-8" standalone="no"?>
<!-- Created with Inkscape (http://www.inkscape.org/) -->

<svg
   xmlns:dc="http://purl.org/dc/elements/1.1/"
   xmlns:cc="http://creativecommons.org/ns#"
   xmlns:rdf="http://www.w3.org/1999/02/22-rdf-syntax-ns#"
   xmlns:svg="http://www.w3.org/2000/svg"
   xmlns="http://www.w3.org/2000/svg"
   xmlns:sodipodi="http://sodipodi.sourceforge.net/DTD/sodipodi-0.dtd"
   xmlns:inkscape="http://www.inkscape.org/namespaces/inkscape"
   width="66.254845mm"
   height="66.535355mm"
   viewBox="0 0 66.254843 66.535349"
   version="1.1"
   id="svg8"
   inkscape:version="0.92.4 (5da689c313, 2019-01-14)"
   sodipodi:docname="FellowOak.svg">
  <defs
     id="defs2" />
  <sodipodi:namedview
     id="base"
     pagecolor="#ffffff"
     bordercolor="#666666"
     borderopacity="1.0"
     inkscape:pageopacity="0.0"
     inkscape:pageshadow="2"
     inkscape:zoom="0.7"
     inkscape:cx="41.994504"
     inkscape:cy="5.3669636"
     inkscape:document-units="mm"
     inkscape:current-layer="layer1"
     showgrid="false"
     fit-margin-left="1"
     fit-margin-top="1"
     fit-margin-right="1"
     fit-margin-bottom="1"
     units="mm"
     inkscape:window-width="1920"
     inkscape:window-height="1137"
     inkscape:window-x="-8"
     inkscape:window-y="-8"
     inkscape:window-maximized="1" />
  <metadata
     id="metadata5">
    <rdf:RDF>
      <cc:Work
         rdf:about="">
        <dc:format>image/svg+xml</dc:format>
        <dc:type
           rdf:resource="http://purl.org/dc/dcmitype/StillImage" />
        <dc:title></dc:title>
      </cc:Work>
    </rdf:RDF>
  </metadata>
  <g
     inkscape:label="Ebene 1"
     inkscape:groupmode="layer"
     id="layer1"
     transform="translate(-11.189733,-56.211868)">
    <path
       style="fill:#617e55;fill-opacity:1;stroke-width:0.26458332"
       d="m 29.943834,96.898417 c -0.739729,-5.29e-4 -1.549502,-0.203335 -2.063163,-0.516535 -0.465036,-0.283549 -1.035119,-0.804911 -1.266851,-1.158579 -0.234735,-0.358251 -0.795776,-0.71792 -1.266818,-0.812131 -0.465017,-0.093 -1.279494,-0.456308 -1.809948,-0.807347 -0.541993,-0.358674 -1.210299,-1.146082 -1.525684,-1.797579 -0.308671,-0.63763 -0.561221,-1.601811 -0.561221,-2.142622 0,-0.540813 0.160859,-1.368285 0.357464,-1.838827 0.196605,-0.470543 0.796061,-1.240626 1.332123,-1.711294 0.536063,-0.47067 1.076206,-0.855763 1.200319,-0.855763 0.124112,0 0.230205,-0.74414 0.235761,-1.653645 0.0064,-1.049756 0.2045,-2.106593 0.542427,-2.89396 0.292779,-0.682173 0.991239,-1.699228 1.552134,-2.260122 0.560894,-0.560894 1.610096,-1.297609 2.331561,-1.637145 0.911317,-0.428885 1.811319,-0.622223 2.94824,-0.633341 l 1.636486,-0.016 0.46039,-1.207579 c 0.273447,-0.717238 1.06011,-1.807858 1.937339,-2.685905 1.033199,-1.034162 1.953328,-1.663225 3.062498,-2.093732 1.140815,-0.44279 2.142151,-0.618177 3.569925,-0.625284 1.46844,-0.0073 2.306021,0.135378 3.221479,0.548801 0.680408,0.307273 1.768216,1.048239 2.41735,1.646592 0.664882,0.612865 1.450909,1.701204 1.800095,2.492419 l 0.619848,1.404506 0.931553,-0.550194 c 0.673825,-0.397976 1.37075,-0.547002 2.51905,-0.538657 1.092732,0.0079 1.925153,0.18849 2.670884,0.579305 0.59586,0.312273 1.448509,0.983623 1.894771,1.491888 0.446262,0.508265 0.964925,1.348717 1.152581,1.867671 0.305189,0.843984 0.441796,0.943551 1.294574,0.943551 0.596464,0 1.404234,0.285923 2.157677,0.763742 0.81224,0.515107 1.394183,1.155993 1.787573,1.968634 0.390602,0.806871 0.556149,1.573697 0.50115,2.321343 -0.07082,0.962766 0.03624,1.234448 0.777769,1.973657 0.656484,0.654431 0.859896,1.085633 0.859896,1.822846 0,0.531101 -0.186489,1.326272 -0.414422,1.767041 -0.244499,0.472813 -0.848778,0.995871 -1.473782,1.275694 -0.582647,0.260858 -1.34542,0.895263 -1.695045,1.409785 -0.413113,0.607949 -1.058127,1.096825 -1.842217,1.396272 -1.032926,0.394475 -1.363928,0.41362 -2.300381,0.133054 -0.601617,-0.18025 -1.431136,-0.665012 -1.843375,-1.077254 -0.532514,-0.532511 -0.749528,-1.013092 -0.749528,-1.65984 0,-0.630782 0.214196,-1.12451 0.697537,-1.607854 0.383646,-0.383646 0.87835,-0.697537 1.099341,-0.697537 0.346197,0 0.341201,0.06696 -0.03608,0.483854 -0.240837,0.266121 -0.437882,0.68284 -0.437882,0.926042 0,0.243202 0.238125,0.680312 0.529166,0.971354 0.344742,0.344742 0.881944,0.529167 1.541381,0.529167 0.713145,0 1.171927,-0.17589 1.552776,-0.595313 0.29731,-0.327422 0.618408,-0.924401 0.713549,-1.326623 0.170022,-0.71878 0.186487,-0.724331 0.960766,-0.323935 0.433279,0.224057 0.787778,0.582912 0.787778,0.797457 0,0.214545 0.116319,0.39008 0.258485,0.39008 0.142166,0 0.450345,-0.292817 0.684842,-0.650705 0.284411,-0.434068 0.368866,-0.912461 0.253675,-1.436926 -0.09498,-0.432422 -0.340104,-0.925168 -0.544727,-1.094991 -0.243565,-0.202139 -0.822079,-0.246872 -1.675239,-0.129535 -0.941564,0.129501 -1.520195,0.06702 -2.085199,-0.225155 -0.430102,-0.222414 -0.978281,-0.703942 -1.218171,-1.070062 -0.239892,-0.366123 -0.436166,-0.972931 -0.436166,-1.348468 0,-0.375536 0.292246,-0.975037 0.649433,-1.332224 0.357188,-0.357188 0.942761,-0.649433 1.301277,-0.649433 0.358513,0 0.840176,0.07227 1.070358,0.160599 0.230185,0.08833 0.418516,0.279662 0.418516,0.425183 0,0.145521 -0.18722,0.192741 -0.416042,0.104931 -0.228825,-0.08781 -0.652677,-0.03301 -0.941898,0.12178 -0.365286,0.195495 -0.500819,0.498173 -0.443854,0.99124 0.06433,0.556813 0.242284,0.728186 0.825606,0.795073 0.408982,0.0469 0.914997,-0.05698 1.124479,-0.230836 0.209481,-0.173852 0.380875,-0.666533 0.380875,-1.094846 0,-0.42831 -0.128645,-1.019124 -0.285879,-1.312918 -0.157234,-0.293793 -0.693016,-0.704283 -1.190625,-0.912198 -0.780569,-0.326141 -1.022766,-0.326747 -1.764642,-0.0044 -0.472942,0.205492 -1.193823,0.739069 -1.601956,1.18573 -0.408133,0.446665 -1.152274,0.925381 -1.653646,1.063816 -0.592082,0.163481 -1.253988,0.157157 -1.888506,-0.01805 -0.537305,-0.148357 -1.307417,-0.623538 -1.711357,-1.055957 -0.403942,-0.432422 -0.809559,-1.186648 -0.901374,-1.676062 -0.09181,-0.489414 -0.03262,-1.296815 0.131537,-1.794224 0.164158,-0.497409 0.592672,-1.180767 0.952252,-1.518574 0.524777,-0.492988 0.65378,-0.52985 0.65378,-0.1868 0,0.235059 -0.119063,0.500965 -0.264584,0.590902 -0.145521,0.08994 -0.264583,0.638157 -0.264583,1.218266 0,0.767075 0.177125,1.231871 0.649433,1.704177 0.387929,0.387931 0.955315,0.649432 1.409086,0.649432 0.46754,0 0.997834,-0.253527 1.37904,-0.659305 0.358447,-0.381548 0.619385,-0.98582 0.619385,-1.434349 0,-0.426274 -0.200094,-1.080429 -0.444657,-1.453677 -0.244562,-0.373248 -0.736118,-0.869605 -1.09235,-1.103017 -0.35623,-0.233412 -1.098714,-0.479448 -1.649961,-0.546748 -0.693808,-0.0847 -1.246552,0.03143 -1.796018,0.377352 -0.436562,0.274843 -1.411628,1.511762 -2.166813,2.748708 -0.789792,1.293634 -2.04887,2.874673 -2.963968,3.721893 -0.875001,0.810096 -2.221653,1.780198 -2.992565,2.155785 -0.770908,0.375587 -1.818372,0.752845 -2.327695,0.838359 l -0.926042,0.155474 0.79375,-0.595087 c 0.436562,-0.3273 1.399588,-1.206418 2.140056,-1.953602 0.740468,-0.74718 1.679003,-2.06177 2.085631,-2.921313 0.457528,-0.967136 0.785138,-2.171051 0.859523,-3.158617 0.09973,-1.324099 0.01254,-1.796163 -0.512086,-2.772485 -0.434313,-0.808252 -1.000701,-1.373804 -1.808953,-1.80628 -0.975355,-0.521888 -1.475915,-0.613688 -2.925704,-0.536557 -1.367457,0.07275 -1.990225,0.252666 -2.854598,0.824681 -0.608063,0.402397 -1.341514,1.113818 -1.629891,1.580937 -0.288378,0.467118 -0.59449,1.11798 -0.68025,1.446358 -0.08576,0.328378 -0.07876,1.008355 0.01554,1.511059 0.09431,0.502704 0.516974,1.259514 0.93926,1.6818 0.422286,0.422285 1.144828,0.843199 1.60565,0.935363 0.537462,0.107493 1.16163,0.01393 1.740903,-0.260949 0.496673,-0.235688 1.154674,-0.781906 1.462225,-1.213819 0.307549,-0.431913 0.616445,-1.293348 0.686435,-1.914299 0.08489,-0.753182 -0.02643,-1.452878 -0.334444,-2.101961 -0.253936,-0.535127 -0.402428,-1.032231 -0.329983,-1.104676 0.07245,-0.07244 0.49974,0.287437 0.949545,0.799737 0.449805,0.5123 0.953889,1.436753 1.12019,2.05434 0.166299,0.617588 0.242049,1.572543 0.168336,2.122122 -0.07372,0.54958 -0.364199,1.444829 -0.645522,1.989442 -0.281321,0.544613 -0.985917,1.325433 -1.565765,1.735153 -0.579848,0.409721 -1.517618,0.84945 -2.083935,0.977175 -0.634571,0.143119 -1.540806,0.127199 -2.36175,-0.04149 -1.171333,-0.240684 -1.558661,-0.512525 -3.209652,-2.252639 -1.341983,-1.414427 -2.134457,-2.03507 -2.778125,-2.175748 -0.495306,-0.108252 -1.284527,-0.115488 -1.753825,-0.01608 -0.469298,0.09941 -1.151429,0.376106 -1.515848,0.614882 -0.364419,0.238776 -0.855942,0.80806 -1.092273,1.265074 -0.236332,0.457015 -0.440917,1.226863 -0.454634,1.710772 -0.01662,0.586381 0.184368,1.102636 0.6026,1.547823 0.447221,0.476047 0.903184,0.667986 1.586835,0.667986 0.527612,0 1.102171,-0.142875 1.276796,-0.3175 0.174625,-0.174625 0.3175,-0.691954 0.3175,-1.149617 0,-0.470125 -0.21049,-1.022609 -0.483855,-1.27 -0.266119,-0.240837 -0.891198,-0.441669 -1.389062,-0.446297 -0.853259,-0.0079 -0.875734,-0.03071 -0.391618,-0.396875 0.282475,-0.213653 0.877788,-0.388016 1.322917,-0.387471 0.445129,5.29e-4 1.18868,0.232296 1.652336,0.515009 0.463655,0.282709 0.985906,0.781023 1.160558,1.107365 0.174652,0.32634 0.317549,1.044327 0.317549,1.595525 0,0.669626 -0.226509,1.299152 -0.682603,1.897121 -0.375431,0.492217 -1.09427,1.090287 -1.59742,1.329047 -0.503149,0.23876 -1.492135,0.429889 -2.197747,0.424733 -0.705612,-0.0052 -1.572753,-0.16991 -1.92698,-0.36612 -0.46944,-0.260027 -0.846464,-0.286184 -1.390655,-0.09648 -0.410633,0.143148 -0.984014,0.562084 -1.27418,0.930968 -0.359195,0.456645 -0.527574,1.0726 -0.527574,1.929956 0,1.024429 0.143144,1.412491 0.767612,2.080985 0.422187,0.451953 0.898437,0.821732 1.058333,0.821732 0.159897,0 0.290722,-0.388811 0.290722,-0.864023 0,-0.475213 0.21909,-1.27254 0.486866,-1.771838 0.267776,-0.499298 0.6239,-0.953492 0.791387,-1.009319 0.205547,-0.06852 0.253926,0.151474 0.148849,0.676857 -0.09531,0.476575 0.0076,1.094105 0.265434,1.592701 0.23161,0.447882 0.686406,1.000154 1.010658,1.22727 0.324252,0.227113 1.089703,0.412935 1.701002,0.412935 0.804652,0 1.332257,-0.185793 1.911362,-0.673079 0.43995,-0.370194 0.874376,-0.907703 0.965391,-1.194466 0.09102,-0.286764 0.275973,-0.453102 0.411017,-0.369639 0.135043,0.08346 0.245349,0.531675 0.245123,0.996029 -2.26e-4,0.464355 -0.208586,1.258626 -0.463021,1.765049 -0.254435,0.50642 -0.86717,1.19103 -1.361633,1.521354 -0.610409,0.407778 -1.289925,0.600268 -2.116667,0.599596 z"
       id="path828"
       inkscape:connector-curvature="0"
       sodipodi:nodetypes="ccscccsscscsssccssscccsccccssssccssccccccscscscscccssccccsssssssccsccsccccscscccscscscscccccscccccscsssscsccccccccsccccscsscssccsssccccccscsccccscsssccccssccscccc" />
    <path
       style="fill:#c29358;fill-opacity:1;stroke-width:0.26458332"
       d="m 44.368096,121.7465 c -1.76357,-0.0131 -4.108775,-0.18714 -5.211572,-0.38684 -1.102797,-0.1997 -3.007796,-0.67853 -4.233334,-1.06406 -1.225537,-0.38553 -3.180749,-1.17469 -4.344916,-1.75368 -1.164166,-0.57899 -2.919793,-1.58654 -3.901393,-2.239 -0.981599,-0.65246 -2.719769,-2.06591 -3.8626,-3.14101 -1.14283,-1.07509 -2.572126,-2.59535 -3.176211,-3.37836 -0.604086,-0.78301 -1.09848,-1.47218 -1.098655,-1.5315 -1.74e-4,-0.0593 2.289693,-0.0706 5.088594,-0.0251 2.798902,0.0456 6.056925,-0.046 7.240052,-0.20346 1.183128,-0.15744 2.852089,-0.46622 3.708802,-0.68617 0.856714,-0.21995 2.199885,-0.71108 2.984824,-1.09141 0.784939,-0.38033 1.896809,-1.16115 2.47082,-1.73516 0.57401,-0.57401 1.268624,-1.53913 1.543587,-2.14471 0.274965,-0.60558 0.502549,-1.55228 0.505745,-2.10379 0.0032,-0.551489 -0.231216,-1.467329 -0.520914,-2.035189 -0.289697,-0.567854 -0.917837,-1.33078 -1.39586,-1.695383 -0.478025,-0.364609 -1.580454,-0.820119 -2.44984,-1.012241 l -1.580701,-0.349305 -0.08303,-1.15392 -0.08303,-1.153919 1.446179,0.119928 c 0.795399,0.06596 2.05315,0.420314 2.795007,0.787455 0.741855,0.367141 1.34883,0.607436 1.34883,0.533988 0,-0.07345 -0.495405,-0.775679 -1.100904,-1.560518 -0.605497,-0.784836 -1.319872,-1.544164 -1.5875,-1.687394 -0.267628,-0.143229 -0.486597,-0.421129 -0.486597,-0.617553 0,-0.196427 0.322126,-0.568203 0.715839,-0.826172 l 0.715833,-0.469035 1.12123,1.274189 c 0.616675,0.700804 1.548453,2.118566 2.070619,3.150581 0.522168,1.032021 1.149789,2.850978 1.394719,4.042138 0.380685,1.851351 0.398465,2.43901 0.122505,4.04828 -0.177549,1.03541 -0.576673,2.38014 -0.886934,2.98831 -0.310261,0.60816 -0.933037,1.56483 -1.383948,2.12592 -0.450911,0.5611 -1.666904,1.58673 -2.702208,2.27919 -1.035305,0.69245 -2.763358,1.57123 -3.840118,1.95283 -1.07676,0.38161 -2.487858,0.82797 -3.135772,0.99192 l -1.178027,0.29808 0.64886,0.50355 c 0.356873,0.27695 1.839485,1.09543 3.294693,1.81884 1.455209,0.72341 3.657867,1.60358 4.894791,1.95593 1.236927,0.35235 3.380052,0.78768 4.7625,0.9674 1.502177,0.19529 3.496786,0.25833 4.957183,0.15667 1.344007,-0.0936 3.368069,-0.35808 4.497919,-0.58783 1.129853,-0.22975 3.256939,-0.88441 4.726866,-1.4548 1.504725,-0.58389 3.759259,-1.75198 5.159375,-2.67312 1.367729,-0.89983 3.42305,-2.57091 4.567373,-3.71353 1.144323,-1.14262 2.139145,-2.01892 2.210726,-1.94735 0.07158,0.0716 -0.440778,0.88157 -1.138566,1.79997 -0.697791,0.91841 -2.119783,2.51637 -3.159985,3.55102 -1.040196,1.03465 -2.773791,2.50413 -3.852434,3.26552 -1.07864,0.76138 -2.889504,1.85377 -4.024145,2.42751 -1.13464,0.57375 -3.099695,1.39051 -4.366784,1.81502 -1.26709,0.42451 -3.360672,0.95615 -4.652404,1.18141 -1.333744,0.23258 -3.734171,0.3993 -5.555092,0.38582 z m 14.279835,-12.42909 c -1.031748,-0.01 -2.499251,-0.18529 -3.261119,-0.39047 -0.761868,-0.20518 -2.012024,-0.69026 -2.778125,-1.07796 -0.766101,-0.3877 -2.107287,-1.43506 -2.980412,-2.32748 -0.873125,-0.89242 -1.913983,-2.29509 -2.31302,-3.11705 -0.399036,-0.82196 -0.905052,-2.18374 -1.124479,-3.026179 -0.219427,-0.842437 -0.3972,-2.548488 -0.395049,-3.791223 0.0021,-1.242732 0.179514,-3.004307 0.394142,-3.914608 0.214627,-0.910302 0.756451,-2.604739 1.204058,-3.765415 0.447603,-1.16068 0.910217,-2.169899 1.02803,-2.242709 0.117811,-0.07281 0.794615,0.06129 1.504011,0.298013 0.709393,0.236717 1.332172,0.465439 1.383953,0.508265 0.05178,0.04283 -0.271536,0.591129 -0.718484,1.218446 -0.446944,0.627316 -0.995463,1.583565 -1.21893,2.124998 l -0.406302,0.984422 0.965142,-0.654963 c 0.530826,-0.36023 1.564606,-0.832985 2.297284,-1.050568 0.732682,-0.217582 1.667725,-0.395605 2.077874,-0.395605 0.733221,0 0.745728,0.02604 0.745728,1.553091 v 1.553091 l -1.198687,0.135107 c -0.659278,0.07431 -1.759543,0.423738 -2.445036,0.776505 -0.856427,0.440732 -1.490591,1.036449 -2.027057,1.904161 -0.561491,0.908193 -0.811967,1.694902 -0.89203,2.801744 -0.06123,0.846437 0.03551,1.983868 0.214969,2.527638 0.179459,0.543759 0.750848,1.458599 1.269754,2.032969 0.518906,0.57436 1.545238,1.34924 2.280735,1.72195 0.735499,0.3727 1.695553,0.78267 2.133457,0.91105 0.437904,0.12837 1.6174,0.35202 2.621108,0.497 1.264581,0.18265 2.315583,0.17462 3.422914,-0.0262 0.878896,-0.15937 2.195328,-0.59246 2.925406,-0.96242 0.730075,-0.36996 1.95784,-1.31837 2.728362,-2.10759 0.943785,-0.96668 1.784887,-2.229819 2.577499,-3.870794 0.723107,-1.497081 1.348492,-3.297931 1.622693,-4.672687 0.328554,-1.647259 0.407376,-2.972271 0.299048,-5.027083 -0.08189,-1.553361 -0.39896,-3.725048 -0.715264,-4.899015 C 69.557612,82.386028 68.9019,80.571256 68.412966,79.51302 67.924032,78.454784 66.95027,76.730458 66.24905,75.681181 65.547833,74.631913 64.126542,72.912649 63.090627,71.860603 62.054711,70.808556 60.120306,69.234136 58.791952,68.361891 57.463595,67.489646 55.39413,66.395674 54.193141,65.930842 c -1.200988,-0.464833 -3.31471,-1.081063 -4.697158,-1.369401 -2.052159,-0.428021 -3.169192,-0.499627 -6.085417,-0.390098 -2.803152,0.105282 -4.084357,0.284912 -5.953125,0.834654 -1.309688,0.385276 -3.355653,1.170066 -4.54659,1.743977 -1.190937,0.573912 -3.098636,1.746735 -4.23933,2.606274 -1.140694,0.859539 -2.611448,2.139863 -3.268342,2.845166 -0.656894,0.705303 -1.758305,2.075292 -2.44758,3.04442 -0.689275,0.969129 -1.673605,2.671905 -2.1874,3.783948 -0.513795,1.112042 -1.169837,2.938494 -1.45787,4.05878 -0.288033,1.120289 -0.595886,3.11811 -0.684117,4.439606 -0.0947,1.418328 -0.02736,3.312755 0.164366,4.623951 0.178633,1.221676 0.626129,3.176545 0.994436,4.344154 0.368308,1.167611 1.147815,3.075428 1.732239,4.239587 0.584424,1.16417 1.528315,2.80289 2.097536,3.64161 0.731705,1.07813 0.934153,1.56362 0.690941,1.65695 -0.189204,0.0726 -1.877571,0.16029 -3.751926,0.19485 l -3.407918,0.0628 -1.268916,-2.51354 c -0.697903,-1.38244 -1.630007,-3.59292 -2.071343,-4.912169 -0.441335,-1.319251 -0.985458,-3.448202 -1.209161,-4.73101 -0.223703,-1.282812 -0.406733,-3.551346 -0.406733,-5.041191 0,-1.489845 0.184303,-3.76568 0.409562,-5.057413 0.225259,-1.291734 0.765568,-3.41121 1.200686,-4.70995 0.435118,-1.298741 1.28485,-3.310351 1.888293,-4.470246 0.603444,-1.159894 1.630766,-2.836247 2.282938,-3.725229 0.652172,-0.888981 1.755328,-2.273587 2.451457,-3.076902 0.696129,-0.803315 2.051909,-2.113002 3.012844,-2.910416 0.960935,-0.797414 2.425385,-1.904387 3.254333,-2.45994 0.828948,-0.555552 2.435521,-1.482435 3.570161,-2.059739 1.134641,-0.577304 3.099172,-1.392485 4.365625,-1.811512 1.266453,-0.419028 3.424952,-0.95066 4.796663,-1.181406 1.371709,-0.230746 3.702214,-0.419539 5.178896,-0.419539 1.476682,0 3.807188,0.191849 5.178896,0.42633 1.371711,0.234482 3.565583,0.78131 4.875271,1.215175 1.309687,0.433865 3.404439,1.324865 4.655,1.98 1.250563,0.655135 3.096032,1.801883 4.101041,2.548329 1.005012,0.746446 2.747892,2.291143 3.873067,3.432659 1.125177,1.141517 2.75636,3.137822 3.624855,4.436234 0.868494,1.298413 1.988119,3.225008 2.488051,4.281324 0.499936,1.056315 1.222592,2.916449 1.605907,4.133631 0.383313,1.217182 0.885376,3.300774 1.115695,4.630208 0.29912,1.726552 0.381995,3.39987 0.290063,5.856735 -0.07615,2.035154 -0.317317,4.141798 -0.590642,5.159375 -0.254069,0.945885 -0.801407,2.475399 -1.216309,3.398923 -0.414898,0.92353 -1.299596,2.443209 -1.965994,3.377079 -0.666395,0.93387 -1.929916,2.29571 -2.807824,3.02632 -0.877909,0.7306 -2.432151,1.74934 -3.453871,2.26387 -1.021721,0.51453 -2.756072,1.16529 -3.854117,1.44612 -1.11315,0.28469 -2.826409,0.5029 -3.872349,0.49319 z"
       id="path828-2"
       inkscape:connector-curvature="0"
       sodipodi:nodetypes="csssscscccsssccccccccscsscscccscccccccccssccsccscccccsccccssssscccccccscccssccscccccccccccsccscsccsssssssssccscccccccsssscssssssssssscssccccscccsccc" />
  </g>
</svg>
